<svg width="90" height="90" viewBox="0 0 90 90" fill="none" xmlns="http://www.w3.org/2000/svg">
<g clip-path="url(#clip0_4_53)">
<path d="M25.0166 19.9805C25.7929 19.9805 26.4228 20.6104 26.4228 21.3867C26.4228 22.1631 25.7929 22.793 25.0166 22.793H22.7929V78.1055H67.207V22.793H64.9805C64.2041 22.793 63.5742 22.1631 63.5742 21.3867C63.5742 20.6104 64.2041 19.9805 64.9805 19.9805H68.5781H68.6133C69.3897 19.9805 70.0195 20.6104 70.0195 21.3867V79.4764V79.5145C70.0195 80.2908 69.3897 80.9208 68.6133 80.9208H21.4218H21.3866C20.6102 80.9208 19.9803 80.2908 19.9803 79.5145V21.4219V21.3867C19.9803 20.6104 20.6102 19.9805 21.3866 19.9805H25.0166Z" fill="#E05100"/>
<path d="M37.7343 5.45513C38.5077 5.45513 39.1347 6.08206 39.1347 6.85547C39.1347 7.62888 38.5077 8.25581 37.7343 8.25581H33.6914V19.9805H56.3085V8.25581L52.2656 8.25297C51.4919 8.25297 50.8652 7.62592 50.8652 6.85251C50.8652 6.07911 51.4922 5.45217 52.2656 5.45217L57.571 5.45513L57.7148 5.44922C58.4911 5.44922 59.121 6.07911 59.121 6.85547V21.3515V21.3867C59.121 22.1631 58.4911 22.793 57.7148 22.793H32.3203H32.2851C31.5087 22.793 30.8789 22.1631 30.8789 21.3867V6.85547H30.8848C30.8848 6.08206 31.5117 5.45513 32.2851 5.45513H37.7343Z" fill="#E05100"/>
<path d="M43.1806 35.5078C42.4042 35.5078 41.7743 34.8779 41.7743 34.1016C41.7743 33.3252 42.4042 32.6953 43.1806 32.6953H61.3476C62.124 32.6953 62.7538 33.3252 62.7538 34.1016C62.7538 34.8779 62.124 35.5078 61.3476 35.5078H43.1806ZM43.1806 68.2032C42.4042 68.2032 41.7743 67.5733 41.7743 66.7969C41.7743 66.0207 42.4042 65.3907 43.1806 65.3907H61.3476C62.124 65.3907 62.7538 66.0207 62.7538 66.7969C62.7538 67.5733 62.124 68.2032 61.3476 68.2032H43.1806ZM43.1806 57.3046C42.4042 57.3046 41.7743 56.6747 41.7743 55.8984C41.7743 55.122 42.4042 54.4921 43.1806 54.4921H61.3476C62.124 54.4921 62.7538 55.122 62.7538 55.8984C62.7538 56.6747 62.124 57.3046 61.3476 57.3046H43.1806ZM43.1806 46.4062C42.4042 46.4062 41.7743 45.7763 41.7743 45C41.7743 44.2236 42.4042 43.5937 43.1806 43.5937H61.3476C62.124 43.5937 62.7538 44.2266 62.7538 45C62.7538 45.7763 62.124 46.4062 61.3476 46.4062H43.1806Z" fill="#E05100"/>
<path d="M29.121 34.0344C28.6582 33.4162 28.7841 32.5373 29.4023 32.0716C30.0204 31.6086 30.8993 31.7346 31.3623 32.3528L32.2851 33.5833L35.25 29.6281C35.7128 29.0101 36.5946 28.8841 37.2128 29.3469C37.8309 29.8097 37.9569 30.6916 37.4941 31.3069L33.4218 36.7355L33.4071 36.7561C33.3281 36.8616 33.2373 36.9553 33.1259 37.0374C32.5077 37.5002 31.6288 37.3743 31.1659 36.7561L29.121 34.0344Z" fill="#E05100"/>
<path d="M29.121 44.9328C28.6582 44.3147 28.7841 43.4358 29.4023 42.97C30.0204 42.507 30.8993 42.6331 31.3623 43.2512L32.2851 44.4817L35.25 40.5266C35.7128 39.9085 36.5946 39.7825 37.2128 40.2453C37.8309 40.7082 37.9569 41.59 37.4941 42.2082L33.4218 47.6368L33.4071 47.6574C33.3281 47.7628 33.2373 47.8566 33.1259 47.9387C32.5077 48.4015 31.6288 48.2757 31.1659 47.6574L29.121 44.9328Z" fill="#E05100"/>
<path d="M29.121 55.8307C28.6582 55.2126 28.7841 54.3335 29.4023 53.868C30.0204 53.4051 30.8993 53.531 31.3623 54.1492L32.2851 55.3797L35.25 51.4246C35.7128 50.8065 36.5946 50.6805 37.2128 51.1432C37.8309 51.606 37.9569 52.488 37.4941 53.106L33.4218 58.5347L33.4071 58.5553C33.3281 58.6607 33.2373 58.7545 33.1259 58.8365C32.5077 59.2993 31.6288 59.1734 31.1659 58.5553L29.121 55.8307Z" fill="#E05100"/>
<path d="M29.121 66.7297C28.6582 66.1116 28.7841 65.2325 29.4023 64.7669C30.0204 64.3041 30.8993 64.43 31.3623 65.0482L32.2851 66.2786L35.25 62.3235C35.7128 61.7055 36.5946 61.5793 37.2128 62.0422C37.8309 62.505 37.9569 63.3868 37.4941 64.005L33.4218 69.4335L33.4071 69.4542C33.3281 69.5597 33.2373 69.6534 33.1259 69.7355C32.5077 70.1983 31.6288 70.0724 31.1659 69.4542L29.121 66.7297Z" fill="#E05100"/>
<path d="M25.0195 10.8984C25.7959 10.8984 26.4258 11.5283 26.4258 12.3047C26.4258 13.0811 25.7959 13.7109 25.0195 13.7109H15.9375C15.331 13.7109 14.7715 13.9629 14.3671 14.3672C13.9628 14.7715 13.7109 15.3311 13.7109 15.9375V84.9609C13.7109 85.5733 13.9599 86.1328 14.3614 86.5311L14.3671 86.5371C14.7656 86.9383 15.3252 87.1875 15.9375 87.1875H74.0625C74.6777 87.1875 75.2344 86.9385 75.6327 86.5371L75.6386 86.5311C76.04 86.1326 76.2891 85.5731 76.2891 84.9609V15.9375C76.2891 15.3253 76.0402 14.7656 75.6386 14.3672L75.6359 14.3642L75.6329 14.3672C75.2286 13.9629 74.672 13.7109 74.0627 13.7109H64.9807C64.2043 13.7109 63.5744 13.0811 63.5744 12.3047C63.5744 11.5283 64.2043 10.8984 64.9807 10.8984H74.0627C75.4484 10.8984 76.7113 11.4667 77.6223 12.378L77.6194 12.3809C78.5334 13.2949 79.1018 14.5576 79.1018 15.9375V84.9609C79.1018 86.3408 78.5363 87.6006 77.6223 88.5145L77.6163 88.5205C76.7023 89.4346 75.4425 90 74.0627 90H15.9377C14.5578 90 13.2981 89.4346 12.3841 88.5205L12.3782 88.5145C11.464 87.6005 10.8985 86.3407 10.8985 84.9609V15.9375C10.8985 14.5518 11.4668 13.2891 12.3781 12.378C13.2893 11.4668 14.5519 10.8984 15.9376 10.8984H25.0195Z" fill="#E05100"/>
<path d="M45 0C46.134 0 47.1679 0.465795 47.915 1.20989L47.9209 1.2158C48.665 1.96284 49.1308 2.99409 49.1308 4.1308C49.1308 5.26466 48.6648 6.29875 47.9209 7.04579L47.9181 7.04875L47.9209 7.0517C47.1767 7.79875 46.1427 8.26159 45 8.26159C43.8574 8.26159 42.8233 7.79579 42.0791 7.0517C41.332 6.3075 40.8692 5.27045 40.8692 4.1308C40.8692 2.99409 41.335 1.96284 42.082 1.21284L42.0791 1.20989C42.8261 0.465795 43.8603 0 45 0ZM45.9375 3.1992L45.9316 3.1933C45.6943 2.95886 45.3661 2.81239 45 2.81239C44.6367 2.81239 44.3057 2.96182 44.0684 3.19909L44.0654 3.19614L44.0625 3.19909C43.831 3.43057 43.6816 3.76455 43.6816 4.12773C43.6816 4.49091 43.831 4.82205 44.0683 5.05943C44.3056 5.2967 44.6366 5.44614 44.9999 5.44614C45.3632 5.44614 45.6942 5.2967 45.9315 5.05943L45.9344 5.06227C46.1687 4.825 46.3153 4.49398 46.3153 4.12773C46.3183 3.76761 46.1718 3.43648 45.9375 3.1992Z" fill="#E05100"/>
</g>
<defs>
<clipPath id="clip0_4_53">
<rect width="90" height="90" fill="white"/>
</clipPath>
</defs>
</svg>
