<svg width="90" height="90" viewBox="0 0 90 90" fill="none" xmlns="http://www.w3.org/2000/svg">
<g clip-path="url(#clip0_5_112)">
<path d="M85.14 90.0002C83.938 90.0002 82.9626 89.0247 82.9626 87.8228C82.9626 66.8891 65.9337 49.8602 45 49.8602C24.0663 49.8602 7.0374 66.8891 7.0374 87.8228C7.0374 89.0247 6.06191 90.0002 4.85998 90.0002C3.65659 90.0002 2.68256 89.0247 2.68256 87.8228C2.68256 64.4881 21.6668 45.5054 45 45.5054C68.3332 45.5054 87.3174 64.4881 87.3174 87.8228C87.3174 89.0247 86.3419 90.0002 85.14 90.0002Z" fill="#E05100"/>
<path d="M44.6733 48.2415C31.3737 48.2415 20.5533 37.4211 20.5533 24.12C20.5533 10.8203 31.3737 0 44.6733 0C57.9745 0 68.7948 10.8203 68.7948 24.12C68.7948 37.4211 57.9745 48.2415 44.6733 48.2415ZM44.6733 4.35484C33.7761 4.35484 24.9082 13.2213 24.9082 24.12C24.9082 35.0202 33.7761 43.8866 44.6733 43.8866C55.5735 43.8866 64.44 35.0202 64.44 24.12C64.44 13.2213 55.5735 4.35484 44.6733 4.35484Z" fill="#E05100"/>
<path d="M45.3513 80.4585C40.0355 80.4585 35.7111 76.1327 35.7111 70.8169C35.7111 65.5011 40.0355 61.1753 45.3513 61.1753C50.6671 61.1753 54.9929 65.5011 54.9929 70.8169C54.9929 76.1327 50.6671 80.4585 45.3513 80.4585ZM45.3513 65.5301C42.4364 65.5301 40.066 67.9021 40.066 70.8169C40.066 73.7317 42.4364 76.1037 45.3513 76.1037C48.2661 76.1037 50.6381 73.7317 50.6381 70.8169C50.6381 67.9021 48.2661 65.5301 45.3513 65.5301Z" fill="#E05100"/>
<path d="M58.2111 85.2937C57.6537 85.2937 57.0963 85.0818 56.671 84.6564L50.7411 78.7252C49.8905 77.876 49.8905 76.4969 50.7411 75.6463C51.5918 74.7956 52.9694 74.7956 53.82 75.6463L59.7499 81.5776C60.6005 82.4268 60.6005 83.8058 59.7499 84.6564C59.3245 85.0818 58.7671 85.2937 58.2111 85.2937Z" fill="#E05100"/>
</g>
<defs>
<clipPath id="clip0_5_112">
<rect width="90" height="90" fill="white"/>
</clipPath>
</defs>
</svg>
