<svg width="90" height="90" viewBox="0 0 90 90" fill="none" xmlns="http://www.w3.org/2000/svg">
<path d="M67.6406 68.5547L56.9531 63.3516L53.4375 61.6641V60.5391C57.375 57.8672 61.7344 52.6641 65.3906 42.8906C67.2891 42.8203 68.9062 41.9766 69.8906 40.5703C71.0859 38.8828 71.2969 36.6328 70.4531 34.8047C70.1719 34.1719 69.75 33.6797 69.3281 33.2578H71.0156V26.5078L67.9922 25.6641V25.2422C67.9922 16.4531 63 8.50781 55.125 4.64062C54.7031 3.09375 53.3672 1.96875 51.6797 1.96875H46.4062V0.703125H43.5938V1.89844H38.3203C36.6328 1.89844 35.2969 3.02344 34.875 4.57031C27 8.4375 22.0078 16.4531 22.0078 25.1719V25.5938L18.9844 26.5078V33.2578H20.6719C20.1797 33.6797 19.8281 34.2422 19.5469 34.8047C18.7031 36.6328 18.9141 38.8828 20.1094 40.5703C21.1641 42.0469 22.7812 42.8203 24.6094 42.8906C28.2656 52.6641 32.6953 57.7969 36.5625 60.5391V61.6641L33.9609 62.9297L22.3594 68.5547C19.4766 69.9609 17.5781 72.9141 17.5781 76.1484V88.4531H72.4219V76.1484C72.4219 72.9141 70.5234 69.9609 67.6406 68.5547ZM50.625 62.7187C50.625 62.9297 50.5547 63.2109 50.5547 63.4922C50.5547 63.6328 50.4844 63.8438 50.4844 63.9844C50.4141 64.125 50.4141 64.2656 50.3438 64.4062C50.3438 64.4062 50.3438 64.4766 50.2734 64.4766C50.2031 64.6172 50.2031 64.6875 50.1328 64.8281C50.1328 64.8984 50.0625 64.9688 49.9922 65.0391C49.9922 65.1094 49.9219 65.1797 49.8516 65.25C49.7812 65.3906 49.7109 65.5312 49.6406 65.6719C49.0078 66.5859 48.1641 67.2891 47.1797 67.7109C47.1797 67.7109 47.1797 67.7109 47.1094 67.7109C46.9688 67.7812 46.8281 67.8516 46.6875 67.8516H46.6172C46.4766 67.9219 46.3359 67.9219 46.1953 67.9219C46.125 67.9219 46.125 67.9219 46.0547 67.9219C45.9141 67.9219 45.7734 67.9922 45.6328 67.9922C45.5625 67.9922 45.5625 67.9922 45.4922 67.9922C45.2812 67.9922 45.1406 67.9922 44.9297 67.9922C41.8359 67.9922 39.3047 65.4609 39.3047 62.3672V61.9453C41.625 63 43.5938 63.2109 44.9297 63.2109C46.2656 63.2109 48.2344 63 50.5547 61.9453V62.5781C50.625 62.6484 50.625 62.6484 50.625 62.7187ZM67.6406 38.9531C67.3594 39.3047 67.0078 39.7266 66.375 39.9375C66.7266 38.3906 67.0078 36.7031 67.1484 35.1562C67.5 35.3672 67.7812 35.6484 67.9219 36.0703C68.3438 36.9141 68.2734 38.1094 67.6406 38.9531ZM21.7969 28.6172L24.8203 27.7734V25.2422C24.8203 18.0703 28.6875 11.4609 34.7344 7.875V16.3125H37.5469V5.48438C37.5469 5.0625 37.8984 4.71094 38.3203 4.71094H43.5938V20.8828H46.4062V4.71094H51.6797C52.1016 4.71094 52.4531 5.0625 52.4531 5.48438V16.2422H55.2656V7.80469C61.3828 11.3906 65.1797 18 65.1797 25.1719V27.7031L68.2031 28.5469V30.375H21.7969V28.6172ZM22.3594 38.9531C21.7266 38.1094 21.6562 36.9141 22.0781 36.0703C22.2891 35.7188 22.5 35.3672 22.8516 35.1562C22.9922 36.9141 23.3438 38.4609 23.6953 39.9375C23.0625 39.7266 22.6406 39.3047 22.3594 38.9531ZM26.9297 41.0625C26.2969 38.7422 25.6641 36.2812 25.5234 33.2578H64.4766C64.4062 35.5078 63.9141 38.8828 63.1406 40.9922C56.8125 58.6406 48.375 60.5391 45 60.5391C41.6953 60.6094 33.2578 58.7109 26.9297 41.0625ZM69.6094 85.6406H63.2812V83.6719H60.4688V85.6406H29.5312V83.6719H26.7188V85.6406H20.3906V76.1484C20.3906 73.9688 21.6562 72 23.5547 71.0859L36.8438 64.6875C36.8438 64.7578 36.9141 64.8281 36.9141 64.8984C36.9141 64.9688 36.9844 65.1094 36.9844 65.1797C37.0547 65.3203 37.125 65.5312 37.1953 65.6719C37.1953 65.7422 37.2656 65.8125 37.2656 65.8828C37.3359 66.0938 37.4766 66.3047 37.5469 66.4453C37.5469 66.4453 37.5469 66.5156 37.6172 66.5156C37.7578 66.7266 37.8984 66.9375 38.0391 67.1484C38.1094 67.2188 38.1094 67.2891 38.1797 67.3594C38.25 67.5 38.3906 67.6406 38.5312 67.7812C38.6016 67.8516 38.6719 67.9219 38.7422 67.9922C38.8125 68.1328 38.9531 68.2031 39.0937 68.3438C39.1641 68.4141 39.2344 68.4844 39.3047 68.5547C39.4453 68.6953 39.5156 68.7656 39.6563 68.9062C39.7266 68.9766 39.7969 69.0469 39.8672 69.1172C40.0078 69.2578 40.1484 69.3281 40.2891 69.4688C40.3594 69.5391 40.4297 69.5391 40.4297 69.6094C40.6406 69.75 40.8516 69.8906 41.0625 70.0312C41.1328 70.0312 41.1328 70.1016 41.2031 70.1016C41.4141 70.1719 41.5547 70.3125 41.7656 70.3828C41.8359 70.4531 41.9062 70.4531 42.0469 70.4531C42.1875 70.5234 42.3281 70.5938 42.5391 70.5938C42.6094 70.5938 42.75 70.6641 42.8203 70.6641C42.9609 70.7344 43.1719 70.7344 43.3125 70.8047C43.3828 70.8047 43.5234 70.875 43.5938 70.875C43.7344 70.875 43.9453 70.9453 44.1562 70.9453C44.2266 70.9453 44.2969 70.9453 44.4375 70.9453C44.7188 70.9453 45 71.0156 45.2109 71.0156C45.4922 71.0156 45.7031 71.0156 45.9844 71.0156C46.125 71.0156 46.2656 71.0156 46.3359 70.9453C46.4766 70.9453 46.5469 70.9453 46.6875 70.875C46.8281 70.875 47.0391 70.8047 47.1797 70.7344C47.25 70.7344 47.3203 70.7344 47.3906 70.6641C47.6016 70.5938 47.7422 70.5234 47.9531 70.5234C48.0234 70.5234 48.0234 70.5234 48.0938 70.5234C48.3047 70.4531 48.5156 70.3828 48.6562 70.3125H48.7266C48.9375 70.2422 49.1484 70.1016 49.2891 70.0312C49.5 69.8906 49.6406 69.8203 49.8516 69.6797C50.0625 69.5391 50.2031 69.4688 50.3438 69.3281C50.3438 69.3281 50.4141 69.3281 50.4141 69.2578C50.5547 69.1172 50.6953 68.9766 50.8359 68.9062L50.9062 68.8359C51.0469 68.6953 51.1172 68.625 51.2578 68.4844C51.3281 68.4141 51.3984 68.3438 51.3984 68.2734C51.4688 68.2031 51.5391 68.0625 51.6797 67.9922C51.75 67.8516 51.8906 67.7812 51.9609 67.6406C52.0312 67.5703 52.0312 67.5 52.1016 67.5C52.6641 66.7266 53.0859 65.8125 53.2969 64.8281L66.5156 71.2266C68.4844 72.1406 69.6797 74.1797 69.6797 76.2891V85.6406H69.6094Z" fill="#E05100"/>
<path d="M60.1172 25.3125H29.8828V28.125H60.1172V25.3125Z" fill="#E05100"/>
</svg>
