<svg width="102" height="102" viewBox="0 0 102 102" fill="none" xmlns="http://www.w3.org/2000/svg">
<path d="M52.632 40.7999C52.19 40.8135 51.765 40.9971 51.4522 41.3167L42.483 50.2587L36.958 44.7507C35.411 43.1391 32.912 45.6279 34.527 47.1715L41.2692 53.8967C41.939 54.5665 43.027 54.5665 43.7002 53.8967L53.8832 43.7409C55.0052 42.6529 54.179 40.7999 52.6354 40.7999H52.632ZM1.7 54.3999H11.9C12.8418 54.3999 13.6 55.1581 13.6 56.0999C13.6 57.0417 12.8418 57.7999 11.9 57.7999H1.7C0.7582 57.7999 0 57.0417 0 56.0999C0 55.1581 0.7582 54.3999 1.7 54.3999ZM1.7 40.7999H11.9C12.8418 40.7999 13.6 41.5581 13.6 42.4999C13.6 43.4417 12.8418 44.1999 11.9 44.1999H1.7C0.7582 44.1999 0 43.4417 0 42.4999C0 41.5581 0.7582 40.7999 1.7 40.7999ZM1.7 27.1999H11.9C12.8418 27.1999 13.6 27.9581 13.6 28.8999C13.6 29.8417 12.8418 30.5999 11.9 30.5999H1.7C0.7582 30.5999 0 29.8417 0 28.8999C0 27.9581 0.7582 27.1999 1.7 27.1999ZM83.3 64.5999C78.625 64.5999 74.8 68.4249 74.8 73.0999C74.8 77.7749 78.625 81.5999 83.3 81.5999C87.975 81.5999 91.8 77.7749 91.8 73.0999C91.8 68.4249 87.975 64.5999 83.3 64.5999ZM83.3 67.9999C86.1356 67.9999 88.4 70.2643 88.4 73.0999C88.4 75.9355 86.1356 78.1999 83.3 78.1999C80.4644 78.1999 78.2 75.9355 78.2 73.0999C78.2 70.2643 80.4644 67.9999 83.3 67.9999ZM39.1 64.5999C34.425 64.5999 30.6 68.4249 30.6 73.0999C30.6 77.7749 34.425 81.5999 39.1 81.5999C43.775 81.5999 47.6 77.7749 47.6 73.0999C47.6 68.4249 43.775 64.5999 39.1 64.5999ZM39.1 67.9999C41.9356 67.9999 44.2 70.2643 44.2 73.0999C44.2 75.9355 41.9356 78.1999 39.1 78.1999C36.2644 78.1999 34 75.9355 34 73.0999C34 70.2643 36.2644 67.9999 39.1 67.9999ZM22.1 20.3999C19.3052 20.3999 17 22.7051 17 25.4999V62.8999C17 65.6947 19.3052 67.9999 22.1 67.9999H28.9C31.1984 68.0339 31.1984 64.5659 28.9 64.5999H22.1C21.1276 64.5999 20.4 63.8723 20.4 62.8999V25.4999C20.4 24.5275 21.1276 23.7999 22.1 23.7999H66.3C67.2724 23.7999 68 24.5275 68 25.4999V64.5999H49.3C47.056 64.5999 47.0968 68.0339 49.3 67.9999H73.1C75.344 67.9999 75.3236 64.5999 73.1 64.5999H71.4V33.9999H85.7718L98.6 54.0463V62.8999C98.6 63.8723 97.8724 64.5999 96.9 64.5999H93.5C91.2764 64.5999 91.2764 67.9999 93.5 67.9999H96.9C99.6948 67.9999 102 65.6947 102 62.8999V53.5499C102 53.2269 101.908 52.9039 101.735 52.6319L88.1348 31.3819C87.822 30.8957 87.2848 30.5999 86.7 30.5999H71.4V25.4999C71.4 22.7051 69.0948 20.3999 66.3 20.3999H22.1Z" fill="#E05100"/>
</svg>
