<svg width="103" height="103" viewBox="0 0 103 103" fill="none" xmlns="http://www.w3.org/2000/svg">
<path d="M18.8833 17.1665C16.6345 17.1665 16.6173 20.6342 18.8833 20.5998H94.4167C95.3986 20.5998 96.1333 21.3346 96.1333 22.3165V66.9498C96.1333 69.2158 99.5667 69.2158 99.5667 66.9498V22.3165C99.5667 19.4943 97.2389 17.1665 94.4167 17.1665H18.8833ZM12.0167 24.0332C9.77127 24.0332 9.77127 27.4665 12.0167 27.4665H87.55C88.5319 27.4665 89.2667 28.2012 89.2667 29.1832V73.8165C89.2667 76.0997 92.7343 76.0825 92.7 73.8165V29.1832C92.7 26.361 90.3722 24.0332 87.55 24.0332H12.0167ZM5.15 30.8998C2.3278 30.8998 0 33.2276 0 36.0498V77.2498C0 80.072 2.3278 82.3998 5.15 82.3998H80.6833C83.5055 82.3998 85.8333 80.072 85.8333 77.2498V36.0498C85.8333 33.2276 83.5055 30.8998 80.6833 30.8998H5.15ZM5.15 34.3332H80.6833C81.6653 34.3332 82.4 35.0679 82.4 36.0498V77.2498C82.4 78.2318 81.6653 78.9665 80.6833 78.9665H5.15C4.16807 78.9665 3.43333 78.2318 3.43333 77.2498V36.0498C3.43333 35.0679 4.16807 34.3332 5.15 34.3332ZM8.58333 37.7665C7.63573 37.7665 6.86667 38.5356 6.86667 39.4832V46.3498C6.86667 48.657 10.3 48.6021 10.3 46.3498V41.1998H15.45C17.7572 41.1998 17.7023 37.7665 15.45 37.7665H8.58333ZM42.9167 37.7665C32.5068 37.7665 24.0333 46.24 24.0333 56.6498C24.0333 67.0597 32.5068 75.5332 42.9167 75.5332C53.3265 75.5332 61.8 67.0597 61.8 56.6498C61.8 46.24 53.3265 37.7665 42.9167 37.7665ZM70.3833 37.7665C68.1311 37.7665 68.0761 41.1998 70.3833 41.1998H75.5333V46.3498C75.5333 48.6021 78.9667 48.657 78.9667 46.3498V39.4832C78.9667 38.5356 78.1976 37.7665 77.25 37.7665H70.3833ZM42.9167 41.1998C51.4657 41.1998 58.3667 48.1008 58.3667 56.6498C58.3667 65.1988 51.4657 72.0998 42.9167 72.0998C34.3677 72.0998 27.4667 65.1988 27.4667 56.6498C27.4667 48.1008 34.3677 41.1998 42.9167 41.1998ZM42.9167 44.6332C41.9656 44.6332 41.2 45.3988 41.2 46.3498V48.3892C39.2155 49.1102 37.7667 50.9986 37.7667 53.2165C37.7667 56.0318 40.1013 58.3665 42.9167 58.3665C43.878 58.3665 44.6333 59.0944 44.6333 60.0832C44.6333 61.072 43.878 61.7998 42.9167 61.7998H39.4833C38.3229 61.7827 37.7667 62.6513 37.7667 63.5165C37.7667 64.3817 38.3229 65.2503 39.4833 65.2332H41.2V66.9498C41.2 67.9009 41.9656 68.6665 42.9167 68.6665C43.8677 68.6665 44.6333 67.9009 44.6333 66.9498V64.9104C46.6178 64.1894 48.0667 62.3011 48.0667 60.0832C48.0667 57.2678 45.732 54.9332 42.9167 54.9332C41.9553 54.9332 41.2 54.2053 41.2 53.2165C41.2 52.2277 41.9553 51.4998 42.9167 51.4998H46.35C47.5105 51.517 48.0667 50.6484 48.0667 49.7832C48.0667 48.918 47.5105 48.0493 46.35 48.0665H44.6333V46.3498C44.6333 45.3988 43.8677 44.6332 42.9167 44.6332ZM8.58333 65.24C7.725 65.2332 6.86667 65.7962 6.86667 66.9498V73.8165C6.86667 74.7641 7.63573 75.5332 8.58333 75.5332H15.45C17.7023 75.5332 17.7572 72.0998 15.45 72.0998H10.3V66.9498C10.3 65.8237 9.44167 65.2469 8.58333 65.24ZM77.25 65.24C76.3917 65.2469 75.5333 65.8237 75.5333 66.9498V72.0998H70.3833C68.0761 72.0998 68.1311 75.5332 70.3833 75.5332H77.25C78.1976 75.5332 78.9667 74.7641 78.9667 73.8165V66.9498C78.9667 65.7962 78.1083 65.2332 77.25 65.24Z" fill="#E05100"/>
</svg>
