<svg width="97" height="97" viewBox="0 0 97 97" fill="none" xmlns="http://www.w3.org/2000/svg">
<path d="M33.0966 48.2527L31.0837 62.7666C31.0096 63.3017 31.0823 63.8469 31.2939 64.3439C31.5055 64.8409 31.8482 65.2711 32.2853 65.5886C32.7223 65.906 33.2374 66.0988 33.7755 66.1464C34.3136 66.1939 34.8545 66.0944 35.3405 65.8585L48.4793 59.46L61.6611 65.86C62.1473 66.0954 62.6883 66.1944 63.2263 66.1464C63.7643 66.0984 64.2793 65.9053 64.7161 65.5876C65.153 65.2698 65.4953 64.8395 65.7067 64.3424C65.9181 63.8453 65.9906 63.3001 65.9164 62.7651L63.8917 48.2927L74.0495 37.7351C74.4241 37.3458 74.6859 36.8621 74.807 36.3357C74.928 35.8092 74.9039 35.2597 74.737 34.7459C74.5702 34.2321 74.2669 33.7733 73.8596 33.4184C73.4523 33.0635 72.9563 32.8258 72.4245 32.7309L58.0333 30.1851L51.1303 17.2609C50.8759 16.7843 50.4969 16.3857 50.0336 16.1078C49.5703 15.8299 49.0403 15.6831 48.5 15.6831C47.9598 15.6831 47.4297 15.8299 46.9665 16.1078C46.5032 16.3857 46.1241 16.7843 45.8698 17.2609L39.0007 30.1599L24.5756 32.7309C24.0438 32.8258 23.5478 33.0635 23.1405 33.4184C22.7332 33.7733 22.4299 34.2321 22.2631 34.7459C22.0962 35.2597 22.0721 35.8092 22.1931 36.3357C22.3142 36.8621 22.576 37.3458 22.9505 37.7351L33.0966 48.2527ZM39.5365 33.1439C39.9804 33.0649 40.4004 32.886 40.7649 32.6205C41.1293 32.3551 41.4285 32.0102 41.6397 31.6119L48.4556 18.6862L49.7936 17.9738L48.4572 18.6872L55.3604 31.6114C55.5719 32.0101 55.8717 32.3554 56.2367 32.6208C56.6018 32.8863 57.0226 33.065 57.4671 33.1434L71.8655 35.6328L61.709 46.1905C61.3945 46.5149 61.1583 46.9069 61.0185 47.3366C60.8787 47.7663 60.839 48.2222 60.9024 48.6696L62.9835 63.1317L49.8032 56.7332C49.3977 56.5346 48.9522 56.4313 48.5007 56.4313C48.0491 56.4313 47.6036 56.5346 47.1981 56.7332L34.086 63.182L36.1004 48.6652C36.1628 48.2185 36.1225 47.7635 35.9828 47.3347C35.843 46.9059 35.6073 46.5146 35.2936 46.1905L25.1086 35.7144L39.5365 33.1439Z" fill="#E05100"/>
<path d="M85.3297 49.7107C86.0304 46.8335 86.3865 43.8832 86.3906 40.9219C86.3906 30.8727 82.3986 21.235 75.2927 14.1292C68.1869 7.02329 58.5492 3.03125 48.5 3.03125C38.4508 3.03125 28.8132 7.02329 21.7073 14.1292C14.6014 21.235 10.6094 30.8727 10.6094 40.9219C10.6133 43.883 10.9698 46.8332 11.6714 49.7101C8.73988 52.3017 6.81556 55.8436 6.23662 59.7133C5.65768 63.5831 6.46117 67.5331 8.50587 70.8691C10.5506 74.2052 13.7056 76.7139 17.4166 77.9543C21.1276 79.1947 25.1571 79.0875 28.7969 77.6515V92.4531C28.7969 92.6732 28.8449 92.8906 28.9374 93.0903C29.03 93.2899 29.1649 93.467 29.3328 93.6093C29.5007 93.7515 29.6975 93.8555 29.9097 93.914C30.1218 93.9725 30.3442 93.9841 30.5612 93.948L48.5 90.9583L66.4388 93.948C66.521 93.9615 66.6042 93.9685 66.6875 93.9688C67.0895 93.9688 67.475 93.8091 67.7592 93.5248C68.0435 93.2406 68.2031 92.8551 68.2031 92.4531V77.6515C71.8424 79.0843 75.8701 79.1892 79.5791 77.9481C83.2881 76.7069 86.4413 74.1989 88.4853 70.8643C90.5292 67.5297 91.3333 63.5817 90.7562 59.7133C90.1791 55.845 88.2579 52.3035 85.3297 49.7107ZM48.5 6.0625C57.7421 6.07277 66.6028 9.74874 73.138 16.2839C79.6731 22.8191 83.3491 31.6797 83.3594 40.9219C83.3621 43.9396 82.9664 46.9446 82.1826 49.8588C80.1001 57.668 75.378 64.5153 68.8188 69.2372C67.8876 69.9074 66.9233 70.5305 65.9297 71.1042L65.9274 71.1059L65.9164 71.113C65.1778 71.5496 64.3979 71.9419 63.7339 72.2674C58.9888 74.5794 53.7798 75.781 48.5016 75.7812C43.2233 75.7815 38.0142 74.5804 33.2689 72.2689C32.6028 71.9419 31.8228 71.5496 31.0712 71.1042C30.0749 70.5291 29.108 69.9044 28.1744 69.2322C21.6161 64.5083 16.8958 57.6592 14.8159 49.8489C14.0326 46.938 13.6374 43.9363 13.6406 40.9219C13.6509 31.6797 17.3269 22.8191 23.8621 16.2839C30.3972 9.74874 39.2579 6.07277 48.5 6.0625ZM22.7344 75.7812C20.0971 75.7816 17.5163 75.0173 15.3045 73.581C13.0927 72.1447 11.3447 70.0979 10.2723 67.6885C9.19991 65.2791 8.84904 62.6105 9.26219 60.0058C9.67535 57.4011 10.8348 54.972 12.6002 53.0128C12.6315 53.1063 12.6744 53.1946 12.7063 53.2885C13.0274 54.2183 13.3766 55.1375 13.7692 56.0366C13.8025 56.1133 13.8403 56.1882 13.8742 56.2639C14.2723 57.1598 14.7046 58.0384 15.1711 58.8999C15.2123 58.9757 15.2498 59.0542 15.2924 59.1301C15.7678 59.994 16.2831 60.836 16.8241 61.6605C16.9076 61.7881 16.9893 61.9165 17.0744 62.043C17.6136 62.844 18.1827 63.6234 18.7818 64.3812C18.8786 64.5039 18.9769 64.6247 19.0754 64.7463C19.6927 65.5093 20.3353 66.2516 21.0099 66.9653C21.0825 67.0422 21.1583 67.1157 21.2315 67.1927C22.6584 68.6774 24.204 70.0433 25.8529 71.2768C25.9507 71.3502 26.046 71.4259 26.1447 71.4981C26.9294 72.0731 27.7377 72.6163 28.5697 73.1275C28.6474 73.1757 28.719 73.2329 28.797 73.2805V74.361C26.9124 75.2947 24.8377 75.7807 22.7344 75.7812ZM31.8281 75.2659V74.9373L31.9342 74.9905C36.631 77.2904 41.7584 78.5781 46.9844 78.7704V88.1381L31.8281 90.6636V75.2659ZM65.1719 90.6636L50.0156 88.1381V78.7704C55.2422 78.5781 60.37 77.2899 65.0668 74.9893C65.1008 74.9731 65.1364 74.9554 65.1719 74.9377V90.6636ZM74.2656 75.7812C72.1624 75.7805 70.0877 75.2943 68.2031 74.3604V73.2805C68.2777 73.235 68.3458 73.1807 68.42 73.1347C69.2509 72.6206 70.0601 72.0769 70.8476 71.5035C70.9537 71.4261 71.0557 71.3447 71.1607 71.2661C71.9773 70.6545 72.7741 70.0185 73.5368 69.3447L73.5495 69.333C74.3153 68.6555 75.0466 67.9418 75.7546 67.2063C75.8345 67.1232 75.9169 67.0432 75.9962 66.9596C76.6676 66.249 77.3067 65.5103 77.921 64.7513C78.021 64.6278 78.1209 64.505 78.2194 64.3803C78.8192 63.6204 79.3896 62.8393 79.9306 62.037C80.0115 61.9168 80.0891 61.7945 80.1687 61.6732C80.7155 60.8396 81.236 59.9909 81.7161 59.1166C81.7486 59.0578 81.7775 58.9972 81.8097 58.9381C82.2926 58.0476 82.7399 57.1383 83.1514 56.21C83.174 56.1589 83.1992 56.1093 83.2216 56.0584C83.6233 55.1396 83.9805 54.2012 84.3074 53.2509C84.3351 53.1702 84.3724 53.0936 84.3996 53.0126C86.1649 54.9719 87.3244 57.4009 87.7376 60.0056C88.1508 62.6103 87.8 65.2789 86.7276 67.6883C85.6552 70.0977 83.9073 72.1445 81.6955 73.5809C79.4837 75.0173 76.9029 75.7816 74.2656 75.7812Z" fill="#E05100"/>
</svg>
