<?xml version="1.0" standalone="no"?>
<!DOCTYPE svg PUBLIC "-//W3C//DTD SVG 20010904//EN"
 "http://www.w3.org/TR/2001/REC-SVG-20010904/DTD/svg10.dtd">
<svg version="1.0" xmlns="http://www.w3.org/2000/svg"
 width="356.000000pt" height="356.000000pt" viewBox="0 0 356.000000 356.000000"
 preserveAspectRatio="xMidYMid meet">
<metadata>
Created by potrace 1.14, written by Peter Selinger 2001-2017
</metadata>
<g transform="translate(0.000000,356.000000) scale(0.100000,-0.100000)"
fill="#000000" stroke="none">
<path d="M1590 3549 c-463 -53 -878 -276 -1174 -629 -442 -527 -539 -1274
-247 -1895 87 -183 185 -327 326 -474 259 -270 604 -456 974 -523 143 -26 461
-31 581 -10 290 52 538 153 760 310 122 86 336 300 422 422 157 222 258 470
310 760 21 120 16 438 -10 581 -104 571 -473 1053 -997 1300 -290 136 -633
194 -945 158z m682 -946 l208 -208 0 43 0 42 140 0 140 0 0 -182 0 -183 148
-148 147 -148 -46 -44 c-46 -43 -48 -44 -108 -41 l-61 3 -2 -351 -3 -351
-1117 -3 -1118 -2 0 350 0 350 -58 0 c-56 0 -59 2 -104 48 l-46 47 361 337
362 337 315 1 315 0 155 155 c85 85 157 155 160 155 3 0 98 -93 212 -207z"/>
<path d="M1722 2167 l-332 -332 0 -348 0 -347 365 0 365 0 0 260 0 260 190 0
190 0 0 -260 0 -260 115 0 115 0 0 348 0 347 -333 333 c-182 182 -334 332
-337 332 -3 0 -155 -150 -338 -333z m168 -752 l0 -145 -140 0 -140 0 0 145 0
145 140 0 140 0 0 -145z"/>
<path d="M710 1430 l0 -290 280 0 280 0 0 290 0 290 -280 0 -280 0 0 -290z
m420 -15 l0 -145 -140 0 -140 0 0 145 0 145 140 0 140 0 0 -145z"/>
</g>
</svg>
