<svg width="22" height="22" viewBox="0 0 22 22" fill="none" xmlns="http://www.w3.org/2000/svg">
<path d="M11 2.93333C11.4055 2.93333 11.7333 3.26113 11.7333 3.66667V10.2667H15.4C15.8055 10.2667 16.1333 10.5945 16.1333 11C16.1333 11.4055 15.8055 11.7333 15.4 11.7333H11C10.5945 11.7333 10.2667 11.4055 10.2667 11V3.66667C10.2667 3.26113 10.5945 2.93333 11 2.93333ZM11 0C17.0749 0 22 4.92507 22 11C22 17.0749 17.0749 22 11 22C4.92507 22 0 17.0749 0 11C0 4.92507 4.92507 0 11 0ZM11 20.5333C16.2653 20.5333 20.5333 16.2653 20.5333 11C20.5333 5.73467 16.2653 1.46667 11 1.46667C5.73467 1.46667 1.46667 5.73467 1.46667 11C1.46667 16.2653 5.73467 20.5333 11 20.5333Z" fill="black"/>
</svg>
