<svg width="15" height="15" viewBox="0 0 15 15" fill="none" xmlns="http://www.w3.org/2000/svg">
<g clip-path="url(#clip0_24_17)">
<path d="M14.9325 11.9558L14.8578 11.7309C14.681 11.2053 14.1014 10.6571 13.569 10.5127L11.5983 9.97437C11.0639 9.82898 10.3015 10.0245 9.91053 10.4155L9.1973 11.1287C6.60529 10.4283 4.57275 8.39567 3.87329 5.80416L4.58655 5.0909C4.97755 4.6999 5.17302 3.93858 5.02763 3.40416L4.49026 1.43251C4.34487 0.899067 3.79571 0.319477 3.27113 0.144597L3.04617 0.0689611C2.52059 -0.105919 1.77102 0.0709415 1.38005 0.461914L0.313167 1.52977C0.12257 1.71937 0.000754092 2.26164 0.000754092 2.26362C-0.0365607 5.65088 1.29162 8.91434 3.68763 11.3104C6.07776 13.7005 9.32899 15.0267 12.7064 14.9983C12.7241 14.9983 13.2821 14.8784 13.4727 14.6888L14.5395 13.6219C14.9305 13.2309 15.1073 12.4814 14.9325 11.9558Z" fill="black"/>
</g>
<defs>
<clipPath id="clip0_24_17">
<rect width="15" height="15" fill="white"/>
</clipPath>
</defs>
</svg>
