<svg width="60" height="44" viewBox="0 0 60 44" fill="none" xmlns="http://www.w3.org/2000/svg">
<path d="M10.4116 39.6197C11.214 39.6197 11.8644 38.9661 11.8644 38.1597C11.8644 37.3534 11.214 36.6997 10.4116 36.6997C9.60927 36.6997 8.95884 37.3534 8.95884 38.1597C8.95884 38.9661 9.60927 39.6197 10.4116 39.6197Z" fill="white"/>
<path d="M24.9395 39.6197C25.7418 39.6197 26.3923 38.9661 26.3923 38.1597C26.3923 37.3534 25.7418 36.6997 24.9395 36.6997C24.1371 36.6997 23.4867 37.3534 23.4867 38.1597C23.4867 38.9661 24.1371 39.6197 24.9395 39.6197Z" fill="white"/>
<path d="M49.1525 39.6197C49.9549 39.6197 50.6053 38.9661 50.6053 38.1597C50.6053 37.3534 49.9549 36.6997 49.1525 36.6997C48.3502 36.6997 47.6998 37.3534 47.6998 38.1597C47.6998 38.9661 48.3502 39.6197 49.1525 39.6197Z" fill="white"/>
<path d="M50.8475 12.8523H40.678V32.3196H39.7094V15.2857C39.7094 13.923 38.6441 12.8523 37.2881 12.8523C36.9976 12.8523 36.707 12.9009 36.4165 12.9983L19.2736 0.490504C18.7409 0.00382053 17.9177 -0.142183 17.2397 0.149827C16.5133 0.441837 16.0291 1.17186 16.0291 1.95055V4.48131C16.0291 5.50334 16.5133 6.52538 17.2881 7.1094C17.3366 7.15807 17.5303 7.30407 17.4818 7.59608C17.4334 7.79076 17.2881 7.93676 17.0944 7.98543C16.9007 8.0341 16.7554 7.93676 16.707 7.88809C16.6102 7.79076 16.5133 7.64475 16.5133 7.49875H14.5763C14.5763 8.22877 14.9153 8.91013 15.4479 9.34814C15.9806 9.83483 16.707 10.0295 17.4334 9.88349C18.4504 9.68882 19.2252 8.91013 19.3705 7.93676C19.5157 7.06073 19.1768 6.13603 18.4504 5.60068C18.1114 5.35734 17.9177 4.91932 17.9177 4.48131V1.95055L17.9661 1.99922L35.0121 14.4583C34.9153 14.7017 34.8668 14.9937 34.8668 15.2857V32.3196H0V35.7264H1.93705V34.2663H6.1017C5.1816 35.2884 4.60048 36.6511 4.60048 38.1598C4.60048 41.3719 7.2155 44 10.4116 44C13.2688 44 15.6901 41.9073 16.1259 39.1332H19.2252C19.7094 41.9073 22.0823 44 24.9395 44C27.7966 44 30.2179 41.9073 30.6538 39.1332H32.7845V41.0799H41.6465V39.1332H43.4383C43.9225 41.9073 46.2954 44 49.1525 44C52.0097 44 54.431 41.9073 54.8668 39.1332H56.6102C58.4988 39.1332 60 37.6244 60 35.7264V27.0147L56.2712 16.6484C55.4964 14.4097 53.2688 12.8523 50.8475 12.8523ZM54.6247 17.7191L57.6755 26.1874L51.5254 24.9707C50.8475 24.8247 50.3632 24.2407 50.3632 23.5593V17.7191H54.6247ZM36.8039 15.2857C36.8039 14.9937 36.9976 14.799 37.2881 14.799C37.5787 14.799 37.7724 14.9937 37.7724 15.2857V32.3196H36.8039V15.2857ZM14.77 34.2663H20.678C19.9516 35.0937 19.4673 36.0671 19.2736 37.1864H16.1743C15.9806 36.0671 15.4479 35.0937 14.77 34.2663ZM10.4116 42.0533C8.28087 42.0533 6.53753 40.3012 6.53753 38.1598C6.53753 36.0184 8.28087 34.2663 10.4116 34.2663C12.5424 34.2663 14.2857 36.0184 14.2857 38.1598C14.2857 40.3012 12.5424 42.0533 10.4116 42.0533ZM24.9395 42.0533C22.8087 42.0533 21.0654 40.3012 21.0654 38.1598C21.0654 36.0184 22.8087 34.2663 24.9395 34.2663C27.0702 34.2663 28.8136 36.0184 28.8136 38.1598C28.8136 40.3012 27.1186 42.0533 24.9395 42.0533ZM39.7094 39.1332H34.7215V37.1864H39.7094V39.1332ZM32.7845 35.2397V37.1864H30.6538C30.46 36.0671 29.9758 35.0937 29.2494 34.2663H34.8668H39.7094H40.678H41.6465H44.8426C44.1162 35.0937 43.632 36.0671 43.4383 37.1864H41.6465V35.2397H32.7845ZM49.1525 42.0533C47.0218 42.0533 45.2785 40.3012 45.2785 38.1598C45.2785 36.0184 47.0218 34.2663 49.1525 34.2663C51.2833 34.2663 53.0266 36.0184 53.0266 38.1598C53.0266 40.3012 51.3317 42.0533 49.1525 42.0533ZM56.6586 37.1864H54.9153C54.4794 34.5097 52.2034 32.4169 49.3947 32.3196H42.615V14.799H50.8475C51.816 14.799 52.6877 15.1883 53.414 15.7724H48.4261V23.5106C48.4261 25.1167 49.5884 26.5281 51.138 26.8687L58.1114 28.2801V35.7264C58.1114 36.5537 57.4818 37.1864 56.6586 37.1864Z" fill="white"/>
</svg>
