<svg width="55" height="55" viewBox="0 0 55 55" fill="none" xmlns="http://www.w3.org/2000/svg">
<path d="M18.7661 27.3599L17.6248 35.5894C17.5828 35.8928 17.624 36.2019 17.744 36.4837C17.864 36.7655 18.0582 37.0095 18.3061 37.1895C18.5539 37.3695 18.8459 37.4788 19.151 37.5058C19.4561 37.5327 19.7629 37.4763 20.0384 37.3425L27.4882 33.7145L34.9625 37.3434C35.2381 37.4769 35.5449 37.533 35.8499 37.5058C36.155 37.4786 36.447 37.3691 36.6947 37.1889C36.9424 37.0088 37.1365 36.7647 37.2564 36.4829C37.3762 36.201 37.4173 35.8919 37.3753 35.5885L36.2272 27.3825L41.9868 21.3963C42.1992 21.1756 42.3476 20.9013 42.4163 20.6028C42.4849 20.3043 42.4712 19.9927 42.3766 19.7014C42.282 19.41 42.1101 19.1499 41.8791 18.9486C41.6482 18.7474 41.367 18.6127 41.0654 18.5588L32.9055 17.1153L28.9914 9.78719C28.8472 9.51694 28.6322 9.29095 28.3696 9.13338C28.1069 8.97581 27.8063 8.89258 27.5 8.89258C27.1937 8.89258 26.8931 8.97581 26.6305 9.13338C26.3678 9.29095 26.1528 9.51694 26.0086 9.78719L22.1138 17.1011L13.9346 18.5588C13.6331 18.6127 13.3518 18.7474 13.1209 18.9486C12.8899 19.1499 12.718 19.41 12.6234 19.7014C12.5288 19.9927 12.5151 20.3043 12.5837 20.6028C12.6524 20.9013 12.8008 21.1756 13.0132 21.3963L18.7661 27.3599ZM22.4176 18.793C22.6693 18.7483 22.9074 18.6468 23.1141 18.4963C23.3207 18.3458 23.4903 18.1502 23.6101 17.9244L27.4748 10.5953L28.2335 10.1914L27.4757 10.5959L31.3899 17.9241C31.5098 18.1502 31.6798 18.3459 31.8868 18.4964C32.0938 18.647 32.3324 18.7483 32.5844 18.7927L40.7485 20.2043L34.9896 26.1906C34.8113 26.3745 34.6774 26.5968 34.5981 26.8404C34.5188 27.0841 34.4963 27.3426 34.5323 27.5963L35.7123 35.7964L28.2389 32.1684C28.009 32.0558 27.7564 31.9972 27.5003 31.9972C27.2443 31.9972 26.9917 32.0558 26.7618 32.1684L19.3271 35.825L20.4693 27.5938C20.5047 27.3405 20.4818 27.0825 20.4026 26.8394C20.3233 26.5962 20.1897 26.3744 20.0118 26.1906L14.2368 20.2505L22.4176 18.793Z" fill="white"/>
<path d="M48.3828 28.1865C48.7801 26.5551 48.982 24.8822 48.9844 23.2031C48.9844 17.5051 46.7208 12.0405 42.6917 8.01138C38.6626 3.98228 33.198 1.71875 27.5 1.71875C21.802 1.71875 16.3374 3.98228 12.3083 8.01138C8.27915 12.0405 6.01563 17.5051 6.01563 23.2031C6.01784 24.8821 6.21999 26.5549 6.61779 28.1861C4.95559 29.6556 3.86448 31.6639 3.53622 33.8581C3.20796 36.0523 3.66354 38.2919 4.8229 40.1835C5.98227 42.0751 7.77123 43.4976 9.87541 44.2009C11.9796 44.9042 14.2643 44.8434 16.3281 44.0292V52.4219C16.3281 52.5466 16.3553 52.6699 16.4078 52.7831C16.4603 52.8963 16.5368 52.9968 16.632 53.0774C16.7272 53.1581 16.8388 53.217 16.9591 53.2502C17.0794 53.2834 17.2054 53.29 17.3285 53.2695L27.5 51.5743L37.6715 53.2695C37.7181 53.2772 37.7652 53.2811 37.8125 53.2812C38.0404 53.2812 38.259 53.1907 38.4202 53.0295C38.5813 52.8684 38.6719 52.6498 38.6719 52.4219V44.0292C40.7354 44.8416 43.0191 44.9011 45.1222 44.1974C47.2252 43.4936 49.0131 42.0715 50.1721 40.1808C51.331 38.29 51.7869 36.0515 51.4597 33.8581C51.1325 31.6647 50.0431 29.6566 48.3828 28.1865ZM27.5 3.4375C32.7404 3.44332 37.7645 5.52764 41.47 9.23315C45.1755 12.9387 47.2598 17.9627 47.2656 23.2031C47.2672 24.9142 47.0428 26.618 46.5984 28.2704C45.4176 32.6983 42.7401 36.5808 39.0209 39.2582C38.4929 39.6382 37.9462 39.9915 37.3828 40.3168L37.3815 40.3177L37.3752 40.3218C36.9565 40.5694 36.5142 40.7918 36.1377 40.9764C33.4473 42.2873 30.4937 42.9686 27.5009 42.9687C24.508 42.9689 21.5544 42.2879 18.8638 40.9772C18.4861 40.7918 18.0439 40.5694 17.6177 40.3168C17.0528 39.9908 16.5045 39.6365 15.9752 39.2554C12.2565 36.5769 9.58009 32.6934 8.40073 28.2648C7.95661 26.6143 7.73255 24.9124 7.73437 23.2031C7.7402 17.9627 9.82451 12.9387 13.53 9.23315C17.2355 5.52764 22.2596 3.44332 27.5 3.4375ZM12.8906 42.9688C11.3953 42.9689 9.93192 42.5356 8.6778 41.7212C7.42368 40.9068 6.43257 39.7462 5.82451 38.3801C5.21644 37.0139 5.01749 35.5008 5.25175 34.0239C5.48601 32.547 6.14344 31.1697 7.14441 30.0588C7.1622 30.1118 7.18652 30.1619 7.20457 30.2151C7.38667 30.7423 7.58467 31.2635 7.80725 31.7733C7.82616 31.8168 7.84755 31.8593 7.8668 31.9022C8.09253 32.4102 8.33766 32.9084 8.60217 33.3969C8.62555 33.4398 8.64677 33.4843 8.67092 33.5274C8.94051 34.0172 9.23269 34.4946 9.53941 34.9621C9.58676 35.0345 9.63308 35.1073 9.68137 35.179C9.98708 35.6332 10.3098 36.0751 10.6495 36.5048C10.7044 36.5744 10.7601 36.6429 10.8159 36.7118C11.1659 37.1444 11.5303 37.5653 11.9128 37.97C11.954 38.0136 11.997 38.0553 12.0385 38.0989C12.8475 38.9408 13.7239 39.7153 14.6589 40.4147C14.7143 40.4563 14.7684 40.4992 14.8243 40.5402C15.2692 40.8662 15.7276 41.1742 16.1993 41.4641C16.2434 41.4914 16.2839 41.5238 16.3282 41.5508V42.1634C15.2596 42.6929 14.0832 42.9685 12.8906 42.9688ZM18.0469 42.6766V42.4902L18.107 42.5204C20.7701 43.8244 23.6774 44.5546 26.6406 44.6636V49.9752L18.0469 51.4072V42.6766ZM36.9531 51.4072L28.3594 49.9752V44.6636C31.3229 44.5546 34.2304 43.8242 36.8936 42.5197C36.9128 42.5105 36.933 42.5005 36.9531 42.4904V51.4072ZM42.1094 42.9688C40.9168 42.9683 39.7404 42.6926 38.6719 42.1631V41.5508C38.7141 41.525 38.7527 41.4942 38.7948 41.4681C39.266 41.1766 39.7248 40.8683 40.1713 40.5433C40.2315 40.4993 40.2893 40.4532 40.3489 40.4086C40.8119 40.0618 41.2637 39.7012 41.6961 39.3192L41.7033 39.3125C42.1376 38.9284 42.5522 38.5237 42.9536 38.1067C42.9989 38.0596 43.0457 38.0142 43.0906 37.9668C43.4713 37.5639 43.8337 37.145 44.182 36.7146C44.2387 36.6446 44.2954 36.575 44.3512 36.5043C44.6913 36.0734 45.0147 35.6305 45.3214 35.1756C45.3673 35.1074 45.4113 35.0381 45.4565 34.9693C45.7665 34.4967 46.0616 34.0154 46.3339 33.5197C46.3523 33.4864 46.3687 33.452 46.3869 33.4185C46.6608 32.9136 46.9144 32.398 47.1477 31.8716C47.1605 31.8427 47.1748 31.8146 47.1875 31.7857C47.4152 31.2647 47.6178 30.7326 47.8032 30.1938C47.8189 30.1481 47.84 30.1046 47.8554 30.0587C48.8564 31.1696 49.5138 32.5469 49.7481 34.0238C49.9824 35.5007 49.7835 37.0138 49.1754 38.38C48.5674 39.7461 47.5763 40.9067 46.3222 41.7211C45.0681 42.5356 43.6047 42.9689 42.1094 42.9688Z" fill="white"/>
</svg>
