<svg width="56" height="56" viewBox="0 0 56 56" fill="none" xmlns="http://www.w3.org/2000/svg">
<path d="M42 16.625H33.25V10.5C33.25 10.2679 33.1578 10.0454 32.9937 9.88128C32.8296 9.71719 32.6071 9.625 32.375 9.625H7.875C7.64294 9.625 7.42038 9.71719 7.25628 9.88128C7.09219 10.0454 7 10.2679 7 10.5C7 10.7321 7.09219 10.9546 7.25628 11.1187C7.42038 11.2828 7.64294 11.375 7.875 11.375H12.25V16.625H3.5C3.26794 16.625 3.04538 16.7172 2.88128 16.8813C2.71719 17.0454 2.625 17.2679 2.625 17.5V24.5C2.625 24.7321 2.71719 24.9546 2.88128 25.1187C3.04538 25.2828 3.26794 25.375 3.5 25.375H12.25V30.625H3.5C3.26794 30.625 3.04538 30.7172 2.88128 30.8813C2.71719 31.0454 2.625 31.2679 2.625 31.5V38.5C2.625 38.7321 2.71719 38.9546 2.88128 39.1187C3.04538 39.2828 3.26794 39.375 3.5 39.375H12.25V44.625H7.77C7.53794 44.625 7.31538 44.7172 7.15128 44.8813C6.98719 45.0454 6.895 45.2679 6.895 45.5C6.895 45.7321 6.98719 45.9546 7.15128 46.1187C7.31538 46.2828 7.53794 46.375 7.77 46.375H32.375C32.6071 46.375 32.8296 46.2828 32.9937 46.1187C33.1578 45.9546 33.25 45.7321 33.25 45.5V39.375H42C42.2321 39.375 42.4546 39.2828 42.6187 39.1187C42.7828 38.9546 42.875 38.7321 42.875 38.5V31.5C42.875 31.2679 42.7828 31.0454 42.6187 30.8813C42.4546 30.7172 42.2321 30.625 42 30.625H33.25V25.375H42C42.2321 25.375 42.4546 25.2828 42.6187 25.1187C42.7828 24.9546 42.875 24.7321 42.875 24.5V17.5C42.875 17.2679 42.7828 17.0454 42.6187 16.8813C42.4546 16.7172 42.2321 16.625 42 16.625ZM14 11.375H31.5V16.625H14V11.375ZM4.375 23.625V18.375H21.875V23.625H4.375ZM4.375 37.625V32.375H21.875V37.625H4.375ZM31.5 44.625H14V39.375H31.5V44.625ZM41.125 37.625H23.625V32.375H41.125V37.625ZM31.5 30.625H14V25.375H31.5V30.625ZM41.125 23.625H23.625V18.375H41.125V23.625Z" fill="white"/>
<path d="M5.25 44.625H3.5C3.26794 44.625 3.04538 44.7172 2.88128 44.8813C2.71719 45.0454 2.625 45.2679 2.625 45.5C2.625 45.7321 2.71719 45.9546 2.88128 46.1187C3.04538 46.2828 3.26794 46.375 3.5 46.375H5.25C5.48206 46.375 5.70462 46.2828 5.86872 46.1187C6.03281 45.9546 6.125 45.7321 6.125 45.5C6.125 45.2679 6.03281 45.0454 5.86872 44.8813C5.70462 44.7172 5.48206 44.625 5.25 44.625Z" fill="white"/>
<path d="M3.5 11.375H5.32C5.55206 11.375 5.77462 11.2828 5.93872 11.1187C6.10281 10.9546 6.195 10.7321 6.195 10.5C6.195 10.2679 6.10281 10.0454 5.93872 9.88128C5.77462 9.71719 5.55206 9.625 5.32 9.625H3.5C3.26794 9.625 3.04538 9.71719 2.88128 9.88128C2.71719 10.0454 2.625 10.2679 2.625 10.5C2.625 10.7321 2.71719 10.9546 2.88128 11.1187C3.04538 11.2828 3.26794 11.375 3.5 11.375Z" fill="white"/>
<path d="M52.5 18.375C52.7321 18.375 52.9546 18.2828 53.1187 18.1187C53.2828 17.9546 53.375 17.7321 53.375 17.5V10.5C53.375 10.2679 53.2828 10.0454 53.1187 9.88128C52.9546 9.71719 52.7321 9.625 52.5 9.625H44.625C44.3929 9.625 44.1704 9.71719 44.0063 9.88128C43.8422 10.0454 43.75 10.2679 43.75 10.5V17.5C43.75 17.7321 43.8422 17.9546 44.0063 18.1187C44.1704 18.2828 44.3929 18.375 44.625 18.375H49.875V23.625H44.625C44.3929 23.625 44.1704 23.7172 44.0063 23.8813C43.8422 24.0454 43.75 24.2679 43.75 24.5V31.5C43.75 31.7321 43.8422 31.9546 44.0063 32.1187C44.1704 32.2828 44.3929 32.375 44.625 32.375H49.875V37.625H44.625C44.3929 37.625 44.1704 37.7172 44.0063 37.8813C43.8422 38.0454 43.75 38.2679 43.75 38.5V45.5C43.75 45.7321 43.8422 45.9546 44.0063 46.1187C44.1704 46.2828 44.3929 46.375 44.625 46.375H52.5C52.7321 46.375 52.9546 46.2828 53.1187 46.1187C53.2828 45.9546 53.375 45.7321 53.375 45.5V38.5C53.375 38.2679 53.2828 38.0454 53.1187 37.8813C52.9546 37.7172 52.7321 37.625 52.5 37.625H51.625V32.375H52.5C52.7321 32.375 52.9546 32.2828 53.1187 32.1187C53.2828 31.9546 53.375 31.7321 53.375 31.5V24.5C53.375 24.2679 53.2828 24.0454 53.1187 23.8813C52.9546 23.7172 52.7321 23.625 52.5 23.625H51.625V18.375H52.5ZM51.625 44.625H45.5V39.375H51.625V44.625ZM50.75 30.625H45.5V25.375H51.625V30.625H50.75ZM45.5 11.375H51.625V16.625H45.5V11.375Z" fill="white"/>
</svg>
