<svg width="34" height="34" viewBox="0 0 34 34" fill="none" xmlns="http://www.w3.org/2000/svg">
<path d="M19.7286 23.7138L24.8082 15.5458C24.8248 15.5194 24.8387 15.4916 24.8496 15.4628C25.7267 14.0324 26.1899 12.3983 26.1899 10.73C26.1899 5.72517 22.1181 1.65338 17.1133 1.65338C12.1085 1.65338 8.03643 5.72517 8.03643 10.73C8.03643 12.3987 8.50025 14.0334 9.3781 15.4649C9.38826 15.4899 9.40012 15.5143 9.41435 15.5381L14.3118 23.7341C10.51 24.2715 8.01 25.8348 8.01 27.7311C8.01 30.0807 12.0028 31.9207 17.0998 31.9207C22.1967 31.9207 26.1896 30.0803 26.1896 27.7311C26.1899 25.8259 23.5733 24.2278 19.7286 23.7138ZM10.2905 15.0071C9.48075 13.7183 9.05284 12.2394 9.05284 10.73C9.05284 6.28556 12.6686 2.6698 17.1133 2.6698C21.5578 2.6698 25.1735 6.28556 25.1735 10.73C25.1735 12.2401 24.7456 13.719 23.9362 15.0071C23.9192 15.0342 23.9053 15.0624 23.8942 15.0915L18.5275 23.7199C18.4469 23.8436 18.4309 23.8717 18.3323 24.0336L16.9771 26.2129L10.3359 15.0986C10.324 15.0671 10.3088 15.0363 10.2905 15.0071ZM17.1001 30.9043C12.3423 30.9043 9.02676 29.2316 9.02676 27.7311C9.02676 26.369 11.5237 25.0856 14.8823 24.6882L16.5323 27.4498C16.6234 27.602 16.7867 27.6958 16.9639 27.6972C16.9653 27.6972 16.967 27.6972 16.9683 27.6972C17.1438 27.6972 17.3071 27.6064 17.4 27.4573L19.1346 24.6682C22.5467 25.0379 25.1731 26.3538 25.1731 27.7311C25.1735 29.232 21.8579 30.9043 17.1001 30.9043Z" fill="white"/>
<path d="M20.4004 10.73C20.4004 8.91029 18.9198 7.4297 17.1001 7.4297C15.2804 7.4297 13.7998 8.91029 13.7998 10.73C13.7998 12.5498 15.2804 14.0303 17.1001 14.0303C18.9198 14.0303 20.4004 12.5498 20.4004 10.73ZM14.8162 10.73C14.8162 9.47068 15.8408 8.44612 17.1001 8.44612C18.3595 8.44612 19.384 9.47068 19.384 10.73C19.384 11.9894 18.3598 13.0139 17.1001 13.0139C15.8404 13.0139 14.8162 11.9894 14.8162 10.73Z" fill="white"/>
</svg>
