<svg width="15" height="15" viewBox="0 0 15 15" fill="none" xmlns="http://www.w3.org/2000/svg">
<g clip-path="url(#clip0_4_10)">
<path d="M14.9325 11.9557L14.8578 11.7308C14.681 11.2052 14.1014 10.657 13.569 10.5126L11.5983 9.97425C11.0639 9.82886 10.3015 10.0244 9.91054 10.4153L9.19731 11.1286C6.6053 10.4282 4.57276 8.39555 3.8733 5.80404L4.58656 5.09078C4.97756 4.69978 5.17303 3.93846 5.02764 3.40404L4.49027 1.43239C4.34488 0.898945 3.79572 0.319355 3.27114 0.144475L3.04618 0.068839C2.5206 -0.106041 1.77103 0.0708195 1.38006 0.461792L0.313179 1.52965C0.122581 1.71924 0.000765536 2.26152 0.000765536 2.2635C-0.0365493 5.65076 1.29163 8.91422 3.68764 11.3103C6.07777 13.7004 9.329 15.0266 12.7064 14.9981C12.7241 14.9981 13.2821 14.8783 13.4727 14.6887L14.5396 13.6218C14.9305 13.2308 15.1074 12.4813 14.9325 11.9557Z" fill="white"/>
</g>
<defs>
<clipPath id="clip0_4_10">
<rect width="15" height="15" fill="white"/>
</clipPath>
</defs>
</svg>
